<svg width="144" height="21" viewBox="0 0 144 21" fill="none" xmlns="http://www.w3.org/2000/svg">
<g clip-path="url(#clip0_249_101)">
<path d="M14.9619 11.7983C15.0179 11.8914 15.0371 12.002 15.016 12.1085C14.8186 13.0055 14.3382 13.8154 13.6458 14.4189C13.6078 14.4476 13.5759 14.4836 13.5518 14.5246C13.5431 14.5434 13.5387 14.5639 13.5387 14.5845C13.5387 14.6053 13.5431 14.6257 13.5518 14.6445C13.5656 14.6606 13.583 14.6732 13.6026 14.6813C13.6222 14.6895 13.6434 14.693 13.6646 14.6915C13.7649 14.6648 13.8618 14.6269 13.9537 14.5787C14.3598 14.348 14.7187 14.0426 15.0113 13.6785C15.1876 13.4647 15.3615 13.2507 15.5284 13.0298C15.8426 12.5935 16.0752 12.1037 16.2147 11.5844C16.3416 11.1637 16.4497 10.7383 16.5813 10.3176C16.6351 10.1633 16.7003 10.0133 16.7764 9.86872C16.807 9.82419 16.8425 9.78319 16.8821 9.74649H16.9151C16.9479 9.85693 16.9879 9.96273 17.0114 10.0755C17.0729 10.4303 17.0816 10.7922 17.0373 11.1496C16.9885 11.6147 16.8932 12.0737 16.7529 12.5198C16.6546 12.794 16.5219 13.0546 16.3581 13.2954C15.9462 13.9742 15.4598 14.6049 14.9079 15.1756C14.5013 15.5683 14.0618 15.9253 13.5941 16.2427C13.56 16.2602 13.529 16.2832 13.5024 16.3109C13.4751 16.3438 13.4609 16.3856 13.4625 16.4284C13.4723 16.4475 13.4866 16.4639 13.5042 16.4762C13.5218 16.4885 13.5422 16.4963 13.5635 16.4989C13.6618 16.4982 13.7597 16.4856 13.8549 16.4612C14.2892 16.3361 14.6954 16.1287 15.0513 15.8502C16.0467 15.1163 16.8551 14.1581 17.4109 13.0533C17.7651 12.3325 17.9948 11.5569 18.0902 10.7594C18.1474 10.256 18.1529 9.74806 18.1067 9.24354C18.0663 8.98498 18.0743 8.72119 18.1301 8.46559C18.1449 8.407 18.1662 8.35022 18.1936 8.29633C18.2571 8.17411 18.3487 8.16708 18.4098 8.29633C18.4741 8.41868 18.5215 8.54915 18.5509 8.68415C18.6799 9.33064 18.7202 9.99164 18.6707 10.649C18.5795 11.717 18.311 12.7623 17.8763 13.742C17.4361 14.7507 16.7751 15.6479 15.942 16.3672C15.6717 16.6023 15.4132 16.8373 15.1335 17.0583C14.7976 17.3025 14.4377 17.512 14.0595 17.6834C13.2248 18.0981 12.3364 18.3947 11.4201 18.5648C10.8584 18.6622 10.288 18.7001 9.71843 18.6776C9.43879 18.6776 9.15672 18.6588 8.87708 18.6447C8.24475 18.6097 7.62091 18.483 7.02499 18.2686C6.1621 17.9684 5.3327 17.5792 4.55017 17.1076C3.63757 16.5481 2.85925 15.7946 2.27038 14.9006C1.97967 14.4803 1.72644 14.0351 1.51359 13.5704C1.50274 13.5428 1.48528 13.5183 1.46274 13.499C1.4402 13.4798 1.41327 13.4663 1.38432 13.46C1.22977 13.4215 1.08598 13.3484 0.963824 13.2462C0.841674 13.144 0.744358 13.0154 0.679233 12.87C0.504956 12.4444 0.369653 12.0039 0.274985 11.5539C0.102741 10.8273 0.0105292 10.0841 0 9.33755C0.00705908 8.86484 0.0502746 8.39342 0.129267 7.92733C0.21848 7.29408 0.376087 6.67233 0.599325 6.07299C0.796761 5.54847 1.07425 5.0577 1.42192 4.61814C1.62405 4.36432 1.79092 4.07993 1.98834 3.82139C3.24132 2.16539 5.03522 1.00106 7.05792 0.530985C7.44805 0.436974 7.83825 0.338261 8.23308 0.265401C8.58559 0.199593 8.93816 0.157289 9.30008 0.124384C9.71843 0.0867795 10.1368 0.0538755 10.5575 0.0491749C12.2453 0.0256735 13.8987 0.527512 15.2887 1.4852C15.4471 1.58101 15.5898 1.70072 15.7117 1.8401C15.8017 1.94978 15.8617 2.08099 15.8856 2.22085C15.8949 2.25375 15.9137 2.28318 15.9397 2.30546C16.2711 2.6251 16.6236 2.92828 16.9292 3.27142C17.4147 3.8019 17.7661 4.441 17.9539 5.13521C18.0399 5.41559 18.0699 5.71018 18.0421 6.00215C18.0142 6.2941 17.9292 6.57774 17.7917 6.83682C17.5618 7.22382 17.2386 7.54707 16.8516 7.77695C16.4211 8.06988 15.9046 8.20976 15.385 8.17411C14.8993 8.15193 14.4383 7.95399 14.0877 7.61709C13.7193 7.23433 13.3268 6.87555 12.9125 6.54302C12.6399 6.33619 12.3578 6.14115 12.0735 5.95546C11.7297 5.74888 11.3488 5.61154 10.9524 5.55121C10.5014 5.46872 10.0421 5.4411 9.58448 5.46895C8.58408 5.48801 7.61615 5.82741 6.82287 6.43728C6.22841 6.88641 5.73912 7.45991 5.38922 8.11773C5.19107 8.51686 5.06609 8.94834 5.02022 9.39161C4.98196 9.66503 4.95999 9.94049 4.95442 10.2165C4.97659 11.0034 5.18178 11.7743 5.55374 12.4681C5.82857 13.0063 6.19432 13.4929 6.63486 13.9065C7.04462 14.2747 7.49857 14.5905 7.98631 14.8466C8.54141 15.1475 9.15445 15.3262 9.78428 15.3707C10.6113 15.4571 11.4468 15.3317 12.2121 15.0064C12.5789 14.834 12.9167 14.6057 13.2133 14.3295C13.7257 13.8889 14.1555 13.3604 14.4825 12.7689C14.6047 12.5551 14.6893 12.32 14.7927 12.0944C14.8233 12.0263 14.8585 11.9581 14.8938 11.8923C14.9153 11.8604 14.9406 11.8312 14.969 11.8053" fill="black"/>
<path d="M138.049 8.21644C139.742 8.21644 140.869 9.47621 140.869 11.3376C140.869 13.1991 139.742 14.44 138.049 14.44C136.357 14.44 135.21 13.1991 135.21 11.3188C135.21 9.43858 136.338 8.21644 138.049 8.21644ZM88.5049 8.02843C89.8212 8.02843 90.6858 8.76173 90.893 9.92743H86.1358C86.3425 8.75232 87.2077 8.02843 88.5049 8.02843ZM45.8612 12.6162C45.8612 13.7631 45.1844 14.44 43.981 14.44C42.7777 14.44 42.0632 13.7631 42.0632 12.6162V6.18581C42.0632 6.12345 42.0384 6.0637 41.9943 6.01957C41.9502 5.9755 41.8905 5.95076 41.8281 5.95076H39.3838C39.3215 5.95076 39.2617 5.9755 39.2177 6.01957C39.1736 6.0637 39.1488 6.12345 39.1488 6.18581V12.729C39.1488 15.587 40.8222 17.0159 42.928 17.0159C44.4323 17.0159 45.4476 16.0946 45.88 14.7032V16.4895C45.8834 16.5507 45.9093 16.6086 45.9526 16.6519C45.996 16.6953 46.0538 16.7211 46.1151 16.7245H48.5782C48.6405 16.7245 48.7003 16.6997 48.7444 16.6557C48.7884 16.6116 48.8132 16.5518 48.8132 16.4895V6.18581C48.8132 6.12345 48.7884 6.0637 48.7444 6.01957C48.7003 5.9755 48.6405 5.95076 48.5782 5.95076H46.1057C46.0433 5.95076 45.9836 5.9755 45.9395 6.01957C45.8954 6.0637 45.8706 6.12345 45.8706 6.18581L45.8612 12.6162ZM71.1691 12.6162C71.1691 13.7631 70.4921 14.44 69.289 14.44C68.0853 14.44 67.3711 13.7631 67.3711 12.6162V6.18581C67.3711 6.12345 67.3461 6.0637 67.302 6.01957C67.2585 5.9755 67.1987 5.95076 67.136 5.95076H64.692C64.6293 5.95076 64.5695 5.9755 64.5254 6.01957C64.4812 6.0637 64.4569 6.12345 64.4569 6.18581V12.729C64.4569 15.587 66.1303 17.0159 68.2363 17.0159C69.7401 17.0159 70.7557 16.0946 71.1877 14.7032V16.4895C71.1912 16.5507 71.2173 16.6086 71.2609 16.6519C71.3038 16.6953 71.3619 16.7211 71.4229 16.7245H73.886C73.9487 16.7245 74.0085 16.6997 74.0526 16.6557C74.0962 16.6116 74.1211 16.5518 74.1211 16.4895V6.18581C74.1211 6.12345 74.0962 6.0637 74.0526 6.01957C74.0085 5.9755 73.9487 5.95076 73.886 5.95076H71.4136C71.3514 5.95076 71.2916 5.9755 71.2475 6.01957C71.2034 6.0637 71.1784 6.12345 71.1784 6.18581L71.1691 12.6162ZM76.5279 16.4895C76.5279 16.5518 76.5529 16.6116 76.5964 16.6557C76.6405 16.6997 76.7003 16.7245 76.7631 16.7245H79.1884C79.2505 16.7245 79.3103 16.6997 79.3545 16.6557C79.3986 16.6116 79.4236 16.5518 79.4236 16.4895V10.5855C79.4236 9.10013 80.3636 8.81811 81.68 8.81811H82.6572C82.7199 8.81811 82.7797 8.79337 82.8238 8.7493C82.868 8.70523 82.8923 8.64542 82.8923 8.58306V6.18581C82.8923 6.12345 82.868 6.0637 82.8238 6.01957C82.7797 5.9755 82.7199 5.95076 82.6572 5.95076H82.4226C80.8432 5.95076 79.8654 6.68406 79.4143 8.4703V6.19521C79.4143 6.13285 79.3893 6.07305 79.3452 6.02898C79.301 5.98491 79.2412 5.96017 79.1791 5.96017H76.7538C76.6911 5.96017 76.6312 5.98491 76.5871 6.02898C76.543 6.07305 76.5186 6.13285 76.5186 6.19521L76.5279 16.4895ZM114.302 16.4895C114.302 16.5518 114.327 16.6116 114.371 16.6557C114.414 16.6997 114.474 16.7245 114.537 16.7245H116.981C117.044 16.7245 117.103 16.6997 117.148 16.6557C117.191 16.6116 117.216 16.5518 117.216 16.4895V9.92743C117.216 8.87454 117.799 8.21644 118.908 8.21644C120.018 8.21644 120.638 8.87454 120.638 9.92743V16.4895C120.638 16.5518 120.663 16.6116 120.707 16.6557C120.751 16.6997 120.811 16.7245 120.873 16.7245H123.336C123.399 16.7245 123.459 16.6997 123.503 16.6557C123.547 16.6116 123.571 16.5518 123.571 16.4895V9.92743C123.571 8.87454 124.173 8.21644 125.264 8.21644C126.354 8.21644 126.994 8.87454 126.994 9.92743V16.4895C126.996 16.5507 127.023 16.6086 127.066 16.6519C127.109 16.6953 127.167 16.7211 127.228 16.7245H129.673C129.735 16.7245 129.795 16.6997 129.839 16.6557C129.883 16.6116 129.908 16.5518 129.908 16.4895V9.83342C129.908 7.05068 128.262 5.64052 126.166 5.64052C124.399 5.64052 123.496 6.78747 123.026 8.22585C122.894 7.50834 122.517 6.85878 121.96 6.38752C121.403 5.91627 120.7 5.6523 119.971 5.64052C118.429 5.64052 117.733 6.58065 117.207 7.97199V6.18581C117.207 6.12345 117.182 6.0637 117.138 6.01957C117.094 5.9755 117.034 5.95076 116.972 5.95076H114.528C114.465 5.95076 114.405 5.9755 114.361 6.01957C114.317 6.0637 114.292 6.12345 114.292 6.18581L114.302 16.4895ZM143.991 11.3376C143.991 8.17882 142.129 5.64052 139.139 5.64052C137.184 5.64052 135.68 6.67465 135.21 8.14125V6.18581C135.21 6.12345 135.185 6.0637 135.141 6.01957C135.097 5.9755 135.037 5.95076 134.975 5.95076H132.521C132.459 5.95076 132.399 5.9755 132.355 6.01957C132.311 6.0637 132.286 6.12345 132.286 6.18581V20.6636C132.286 20.7259 132.311 20.7857 132.355 20.8298C132.399 20.8739 132.459 20.8986 132.521 20.8986H134.984C135.046 20.8986 135.106 20.8739 135.15 20.8298C135.195 20.7857 135.22 20.7259 135.22 20.6636V14.5528C135.689 16.0194 137.194 17.0348 139.149 17.0348C142.138 17.0348 144 14.5152 144 11.3376H143.991ZM103.265 10.7031L105.161 5.58411L107.063 10.7031H103.265ZM93.8636 11.3423C93.8636 8.12714 91.9458 5.5136 88.4863 5.5136C85.2335 5.5136 83.1089 8.12714 83.1089 11.3423C83.1089 14.6704 85.478 17.1523 89.0878 17.1523C91.0434 17.1523 92.7169 16.2874 93.5065 15.1404C93.5269 15.1136 93.542 15.0828 93.5501 15.0501C93.5588 15.0172 93.5605 14.9831 93.5547 14.9497C93.5495 14.9162 93.5379 14.8842 93.5199 14.8556C93.5013 14.827 93.4781 14.8023 93.4502 14.7831L91.8047 13.3166C91.782 13.2965 91.7553 13.2815 91.7263 13.2724C91.6973 13.2634 91.6665 13.2605 91.6363 13.264C91.6067 13.2676 91.5771 13.2775 91.5515 13.293C91.5254 13.3085 91.5027 13.3294 91.4853 13.3542C91.2043 13.7596 90.8269 14.0887 90.3867 14.3119C89.9472 14.5351 89.4589 14.6453 88.9653 14.6327C87.5741 14.6327 86.2955 13.9746 86.1074 12.1696H93.6285C93.6604 12.1726 93.6918 12.1684 93.722 12.1576C93.7516 12.1468 93.7789 12.1296 93.8009 12.1072C93.8236 12.0848 93.841 12.0577 93.8514 12.0279C93.8625 11.998 93.8665 11.9662 93.8636 11.9346V11.3423ZM55.5538 8.23996C55.5538 8.30226 55.5786 8.36207 55.6227 8.40614C55.6668 8.45021 55.7265 8.47494 55.7889 8.47494H57.3683V13.5234C57.3683 15.5541 58.4025 16.7386 60.5648 16.7386H62.5767C62.6389 16.7386 62.6987 16.7138 62.7428 16.6698C62.7869 16.6257 62.8113 16.5659 62.8113 16.5036V14.3883C62.8142 14.3567 62.8101 14.3249 62.7997 14.295C62.7887 14.2653 62.7718 14.2381 62.7492 14.2157C62.7265 14.1933 62.6998 14.1761 62.6696 14.1653C62.64 14.1545 62.6081 14.1504 62.5767 14.1533H61.2111C60.534 14.1533 60.3087 13.9183 60.3087 13.3448V8.47965H62.546C62.6081 8.47965 62.6679 8.45491 62.712 8.41084C62.7561 8.36677 62.7811 8.30696 62.7811 8.24466V6.19521C62.7811 6.13285 62.7561 6.07305 62.712 6.02898C62.6679 5.98491 62.6081 5.96017 62.546 5.96017H60.3087V2.85778C60.3087 2.79544 60.2838 2.73566 60.2396 2.69158C60.1955 2.64751 60.1357 2.62274 60.0736 2.62274H57.5751C57.5435 2.61986 57.5116 2.62395 57.4819 2.63474C57.452 2.64553 57.4249 2.66275 57.4025 2.68517C57.3801 2.7076 57.3628 2.7347 57.3521 2.76453C57.3413 2.79435 57.3372 2.82619 57.3401 2.85778V5.94136H55.7607C55.6984 5.94136 55.6385 5.96609 55.5945 6.01022C55.5504 6.05429 55.5257 6.11404 55.5257 6.1764L55.5538 8.23996ZM97.7842 16.513C97.7737 16.5383 97.7696 16.5657 97.7725 16.5928C97.7749 16.62 97.7841 16.6462 97.7987 16.6691C97.8132 16.6921 97.8335 16.7113 97.8567 16.725C97.8805 16.7387 97.9072 16.7466 97.9345 16.748H100.811C100.883 16.7501 100.953 16.7282 101.011 16.6856C101.069 16.643 101.111 16.5822 101.13 16.513L102.278 13.3918H108.069L109.244 16.513C109.264 16.5822 109.305 16.643 109.363 16.6856C109.421 16.7282 109.492 16.7501 109.564 16.748H112.497C112.524 16.7466 112.551 16.7387 112.574 16.725C112.598 16.7113 112.618 16.6921 112.632 16.6691C112.647 16.6462 112.656 16.62 112.659 16.5928C112.661 16.5657 112.657 16.5383 112.647 16.513L107.382 2.84367C107.361 2.78141 107.321 2.72765 107.266 2.69039C107.212 2.65312 107.148 2.63434 107.081 2.63685H103.34C103.271 2.63006 103.202 2.64682 103.144 2.68439C103.086 2.72196 103.042 2.77811 103.02 2.84367L97.7842 16.513ZM32.2578 14.1063C29.757 14.1063 28.0836 12.2448 28.0836 9.66893C28.0836 7.09301 29.757 5.23157 32.2578 5.23157C32.9451 5.23867 33.6214 5.40543 34.2332 5.71868C34.845 6.03194 35.3756 6.4831 35.7832 7.03657C35.8005 7.06711 35.8249 7.09307 35.8543 7.11234C35.8837 7.13156 35.9172 7.14347 35.9522 7.14718C35.9871 7.15084 36.0224 7.14614 36.0551 7.13348C36.0879 7.12076 36.1171 7.10044 36.1404 7.0742L38.1335 5.36319C38.1797 5.3209 38.209 5.26328 38.2159 5.20103C38.2228 5.13878 38.2069 5.07614 38.1711 5.02474C36.9489 3.23852 34.8807 2.33601 32.2672 2.33601C27.8016 2.33601 24.859 5.66402 24.859 9.66893C24.859 13.7114 27.811 17.0395 32.2672 17.0395C34.8807 17.0395 37.0805 15.9301 38.1711 14.3131C38.2074 14.2619 38.2236 14.1991 38.2166 14.1367C38.2097 14.0743 38.1801 14.0167 38.1335 13.9746L36.1216 12.3294C36.1 12.3036 36.0723 12.2836 36.041 12.271C36.0097 12.2585 35.9758 12.2538 35.9424 12.2576C35.9089 12.2613 35.8768 12.2732 35.849 12.2923C35.8212 12.3114 35.7987 12.3371 35.7832 12.3671C35.3684 12.9074 34.8345 13.3446 34.223 13.6447C33.6114 13.9447 32.9389 14.0995 32.2578 14.0969V14.1063ZM53.9368 1.87535H51.4455C51.4139 1.87246 51.3821 1.87656 51.3523 1.88734C51.3224 1.89813 51.2954 1.91536 51.273 1.93779C51.2505 1.96021 51.2333 1.9873 51.2225 2.01713C51.2117 2.04696 51.2076 2.0788 51.2105 2.11038V16.4942C51.2105 16.5565 51.2353 16.6163 51.2794 16.6604C51.3234 16.7044 51.3832 16.7292 51.4455 16.7292H53.9251C53.9874 16.7292 54.0472 16.7044 54.0913 16.6604C54.1354 16.6163 54.1601 16.5565 54.1601 16.4942V2.10568C54.163 2.07409 54.1589 2.04226 54.1481 2.01243C54.1373 1.9826 54.1201 1.95551 54.0977 1.93308C54.0753 1.91066 54.0482 1.89344 54.0184 1.88265C53.9885 1.87185 53.9567 1.86776 53.9251 1.87065" fill="black"/>
</g>
<defs>
<clipPath id="clip0_249_101">
<rect width="144" height="21" fill="white"/>
</clipPath>
</defs>
</svg>
