<svg width="21" height="21" viewBox="0 0 21 21" fill="none" xmlns="http://www.w3.org/2000/svg">
<path fill-rule="evenodd" clip-rule="evenodd" d="M1.83333 0.5C1.09695 0.5 0.5 1.09695 0.5 1.83333V19.1667C0.5 19.9031 1.09695 20.5 1.83333 20.5H11.0223V12.7151H8.5V9.6812H11.0223V7.44373C11.0223 4.84719 12.5491 3.43333 14.7793 3.43333C15.8475 3.43333 16.7657 3.51596 17.0333 3.55287V6.26641L15.4865 6.26716C14.2737 6.26716 14.0388 6.86574 14.0388 7.74413V9.6812H16.9315L16.5548 12.7151H14.0388V20.5H19.1667C19.9031 20.5 20.5 19.9031 20.5 19.1667V1.83333C20.5 1.09695 19.9031 0.5 19.1667 0.5H1.83333Z" fill="#9F9B9D"/>
</svg>
