<svg width="21" height="15" viewBox="0 0 21 15" fill="none" xmlns="http://www.w3.org/2000/svg">
<path fill-rule="evenodd" clip-rule="evenodd" d="M18.3068 1.25172C19.1705 1.48882 19.8523 2.16624 20.0795 3.0243C20.5 4.58238 20.5 7.83398 20.5 7.83398C20.5 7.83398 20.5 11.0856 20.0909 12.6437C19.8523 13.513 19.1818 14.1905 18.3182 14.4163C16.75 14.834 10.5 14.834 10.5 14.834C10.5 14.834 4.25 14.834 2.69318 14.4163C1.82955 14.1791 1.14773 13.5017 0.920455 12.6437C0.5 11.0856 0.5 7.83398 0.5 7.83398C0.5 7.83398 0.5 4.58238 0.909091 3.0243C1.14773 2.15495 1.81818 1.47753 2.68182 1.25172C4.25 0.833984 10.5 0.833984 10.5 0.833984C10.5 0.833984 16.75 0.833984 18.3068 1.25172ZM13.6818 7.83398L8.45453 10.7921V4.87592L13.6818 7.83398Z" fill="#9F9B9D"/>
</svg>
