<svg width="19" height="16" viewBox="0 0 19 16" fill="none" xmlns="http://www.w3.org/2000/svg">
<path fill-rule="evenodd" clip-rule="evenodd" d="M6.28447 15.2001C12.8256 15.2001 16.4027 9.53239 16.4027 4.61752C16.4027 4.45659 16.3996 4.29626 16.3927 4.13676C17.0871 3.61177 17.6906 2.95659 18.1667 2.21078C17.5295 2.50697 16.8438 2.70638 16.1244 2.79636C16.8586 2.33585 17.4223 1.60749 17.6882 0.73909C17.0011 1.16517 16.2403 1.47475 15.43 1.64192C14.7811 0.918977 13.8572 0.466797 12.8342 0.466797C10.8703 0.466797 9.2778 2.13248 9.2778 4.18566C9.2778 4.47752 9.309 4.76146 9.37 5.03372C6.41433 4.87819 3.7935 3.39818 2.03955 1.14771C1.73413 1.6974 1.55801 2.33585 1.55801 3.01712C1.55801 4.30752 2.18583 5.44672 3.14055 6.11312C2.5571 6.09426 2.00901 5.92679 1.52997 5.64799C1.52945 5.66359 1.52945 5.67879 1.52945 5.69546C1.52945 7.49672 2.75527 9.00066 4.38248 9.34146C4.08369 9.42666 3.76925 9.47232 3.44475 9.47232C3.21599 9.47232 2.99304 9.44879 2.77638 9.40526C3.22913 10.8831 4.54197 11.9585 6.09845 11.9885C4.88129 12.9863 3.34802 13.5806 1.68161 13.5806C1.39491 13.5806 1.11171 13.5636 0.833332 13.5292C2.40721 14.5843 4.27583 15.2001 6.28447 15.2001Z" fill="#9F9B9D"/>
</svg>
