<svg width="19" height="19" viewBox="0 0 19 19" fill="none" xmlns="http://www.w3.org/2000/svg">
<path d="M9.49966 2.39548C11.8138 2.39548 12.0877 2.40442 13.0017 2.44605C13.8466 2.48458 14.3055 2.62563 14.611 2.74432C15.0155 2.90153 15.3041 3.08936 15.6076 3.39244C15.911 3.69587 16.0988 3.9845 16.2557 4.38906C16.3744 4.69455 16.5154 5.15347 16.5539 5.99838C16.5956 6.91212 16.6045 7.18625 16.6045 9.50045C16.6045 11.8147 16.5956 12.0885 16.5539 13.0026C16.5154 13.8475 16.3744 14.3064 16.2557 14.6119C16.0985 15.0165 15.9107 15.3051 15.6076 15.6085C15.3041 15.9119 15.0155 16.0998 14.611 16.2567C14.3055 16.3753 13.8466 16.5164 13.0017 16.5549C12.088 16.5965 11.8138 16.6055 9.49966 16.6055C7.18546 16.6055 6.91133 16.5965 5.99762 16.5549C5.15273 16.5164 4.69382 16.3753 4.38833 16.2567C3.98378 16.0995 3.69515 15.9116 3.39173 15.6085C3.08832 15.3051 2.90049 15.0165 2.74362 14.6119C2.62493 14.3064 2.48389 13.8475 2.44536 13.0026C2.40373 12.0889 2.39479 11.8147 2.39479 9.50045C2.39479 7.18625 2.40373 6.91245 2.44536 5.99838C2.48389 5.15347 2.62493 4.69455 2.74362 4.38906C2.90083 3.9845 3.08866 3.69587 3.39173 3.39244C3.69515 3.08902 3.98378 2.90118 4.38833 2.74432C4.69382 2.62563 5.15273 2.48458 5.99762 2.44605C6.91166 2.40442 7.18546 2.39548 9.49966 2.39548ZM9.49966 0.833984C7.14593 0.833984 6.85079 0.843958 5.92641 0.886278C5.00412 0.928244 4.37423 1.0748 3.82278 1.28912C3.25275 1.51066 2.76942 1.80686 2.28781 2.28884C1.80619 2.77046 1.50965 3.2538 1.28845 3.8235C1.07413 4.37496 0.927588 5.00486 0.885615 5.92716C0.843302 6.85152 0.833328 7.14672 0.833328 9.50045C0.833328 11.8543 0.843302 12.1494 0.885615 13.0738C0.927588 13.9961 1.07413 14.626 1.28845 15.1775C1.50999 15.7475 1.80619 16.2309 2.28815 16.7125C2.77011 17.1945 3.2531 17.4907 3.82313 17.7122C4.37424 17.9265 5.00446 18.0731 5.92675 18.1151C6.85113 18.1573 7.14626 18.1673 9.5 18.1673C11.8537 18.1673 12.1489 18.1573 13.0733 18.1151C13.9955 18.0731 14.6257 17.9265 15.1769 17.7122C15.7469 17.4907 16.2302 17.1945 16.7119 16.7125C17.1938 16.2305 17.49 15.7475 17.7115 15.1775C17.9259 14.6263 18.0724 13.9961 18.1144 13.0738C18.1567 12.1494 18.1667 11.8543 18.1667 9.50045C18.1667 7.14672 18.1567 6.85152 18.1144 5.92716C18.0724 5.00486 17.9259 4.37462 17.7115 3.8235C17.49 3.25346 17.1938 2.77012 16.7119 2.28849C16.2299 1.80652 15.7469 1.51032 15.1769 1.28878C14.6251 1.0748 13.9952 0.928244 13.0729 0.886278C12.1485 0.843958 11.8534 0.833984 9.49966 0.833984ZM9.49966 5.05026C7.04166 5.05026 5.04953 7.04278 5.04953 9.50045C5.04953 11.9581 7.04206 13.9507 9.49966 13.9507C11.9573 13.9507 13.9498 11.9581 13.9498 9.50045C13.9498 7.04278 11.9576 5.05026 9.49966 5.05026ZM9.49966 12.3892C7.90413 12.3892 6.611 11.0957 6.611 9.50045C6.611 7.90492 7.90446 6.61178 9.49966 6.61178C11.0949 6.61178 12.3883 7.90525 12.3883 9.50045C12.3883 11.0961 11.0952 12.3892 9.49966 12.3892ZM14.1259 3.83416C13.5514 3.83416 13.086 4.29962 13.086 4.87413C13.086 5.44864 13.5514 5.91409 14.1259 5.91409C14.7004 5.91409 15.1659 5.44864 15.1659 4.87413C15.1659 4.29962 14.7001 3.83416 14.1259 3.83416Z" fill="#9F9B9D"/>
</svg>
