<svg width="21" height="21" viewBox="0 0 21 21" fill="none" xmlns="http://www.w3.org/2000/svg">
<path fill-rule="evenodd" clip-rule="evenodd" d="M1.83333 0.5C1.09695 0.5 0.5 1.09695 0.5 1.83333V19.1667C0.5 19.9031 1.09695 20.5 1.83333 20.5H19.1667C19.9031 20.5 20.5 19.9031 20.5 19.1667V1.83333C20.5 1.09695 19.9031 0.5 19.1667 0.5H1.83333ZM5.35647 4.5C6.1962 4.5 6.87861 5.18351 6.87861 6.02363C6.87861 6.86571 6.1962 7.5492 5.35647 7.5492C4.51377 7.5492 3.83333 6.86571 3.83333 6.02363C3.83333 5.18351 4.51377 4.5 5.35647 4.5ZM8.316 8.70593H10.8333V9.8612H10.8687C11.2187 9.1964 12.0751 8.4952 13.3525 8.4952C16.0093 8.4952 16.5 10.2473 16.5 12.5263V17.1661H13.8775V13.0523C13.8775 12.0703 13.8589 10.8087 12.5137 10.8087C11.1469 10.8087 10.9385 11.8773 10.9385 12.9804V17.1661H8.316V8.70593ZM4.04179 17.1667H6.67015V8.70647H4.04179V17.1667Z" fill="#9F9B9D"/>
</svg>
